<svg width="16" height="15" viewBox="0 0 16 15" fill="none" xmlns="http://www.w3.org/2000/svg">
<path d="M3.58143 15H0.264286V4.98527H3.58143V15ZM1.92107 3.61917C0.860357 3.61917 0 2.79549 0 1.80104C7.59214e-09 1.32338 0.202398 0.865275 0.562669 0.527514C0.92294 0.189752 1.41157 0 1.92107 0C2.43057 0 2.9192 0.189752 3.27947 0.527514C3.63974 0.865275 3.84214 1.32338 3.84214 1.80104C3.84214 2.79549 2.98143 3.61917 1.92107 3.61917ZM15.9964 15H12.6864V10.1249C12.6864 8.96303 12.6614 7.47305 10.9618 7.47305C9.23714 7.47305 8.97286 8.73535 8.97286 10.0412V15H5.65929V4.98527H8.84071V6.35137H8.88714C9.33 5.56452 10.4118 4.73415 12.0257 4.73415C15.3829 4.73415 16 6.80674 16 9.49876V15H15.9964Z" fill="#030026"/>
</svg>
