<svg width="16" height="14" viewBox="0 0 16 14" fill="none" xmlns="http://www.w3.org/2000/svg">
<path d="M14.3554 3.48905C14.3655 3.64217 14.3655 3.79532 14.3655 3.94844C14.3655 8.61873 11.066 14 5.03555 14C3.17767 14 1.45179 13.4203 0 12.4141C0.26397 12.4469 0.517752 12.4578 0.791878 12.4578C2.32485 12.4578 3.73605 11.9 4.86296 10.9485C3.42133 10.9156 2.2132 9.89845 1.79694 8.49844C2.00001 8.53123 2.20304 8.55311 2.41626 8.55311C2.71067 8.55311 3.00511 8.50934 3.2792 8.43282C1.77666 8.10467 0.649721 6.68281 0.649721 4.96562V4.92189C1.08625 5.18439 1.59391 5.34845 2.13195 5.3703C1.24869 4.73591 0.670034 3.65311 0.670034 2.4281C0.670034 1.77186 0.832441 1.1703 1.11672 0.645296C2.73095 2.78904 5.15736 4.18902 7.87816 4.34217C7.82741 4.07967 7.79694 3.80626 7.79694 3.53282C7.79694 1.58592 9.25888 0 11.0761 0C12.0203 0 12.8731 0.426561 13.4721 1.11562C14.2132 0.962507 14.9238 0.66718 15.5533 0.262502C15.3096 1.08283 14.7919 1.7719 14.1117 2.20937C14.7716 2.13284 15.4112 1.93592 16 1.66251C15.5534 2.36248 14.995 2.9859 14.3554 3.48905Z" fill="#030026"/>
</svg>
